<?xml version="1.0" encoding="UTF-8"?>
<svg viewBox="0 0 280 280" version="1.1" xmlns="http://www.w3.org/2000/svg" xmlns:xlink="http://www.w3.org/1999/xlink">
    <g id="Page-1" stroke="none" stroke-width="1" fill="none" fill-rule="evenodd">
        <g id="box" fill-rule="nonzero">
            <g id="arms_2_" transform="translate(0.000000, 66.309061)">
                <g id="Group">
                    <path d="M5.55111512e-17,4.9949889 C5.55111512e-17,2.2363327 2.23991438,0 4.99615153,0 L241.863799,0 L241.863799,206.55904 C241.863799,209.317696 239.623885,211.554029 236.867648,211.554029 L4.99615153,211.554029 C2.23685323,211.554029 5.55111512e-17,209.321319 5.55111512e-17,206.55904 L5.55111512e-17,4.9949889 Z" id="Rectangle-path" fill="#DA9A5B"></path>
                    <polygon id="Shape" fill="#000000" opacity="0.05" points="243.979115 106.779225 153.08223 213.072303 243.979115 213.072303"></polygon>
                    <polygon id="Shape" fill="#E5B486" points="148.633371 0.488283795 196.181978 0.488283795 189.107114 94.9396786 143.270801 75.6455238"></polygon>
                </g>
            </g>
            <path d="M245.503841,67.1478096 L2.75894744,67.1478096 L35.356028,23.7462941 C37.015481,21.5368087 40.6025439,19.745667 43.3604203,19.745667 L278.396502,19.745667 L245.503841,67.1478096 Z" id="Rectangle-path" fill="#BA7D4A"></path>
            <path d="M241.863799,67.2294835 L241.863799,274.269188 L276.748529,233.430053 C278.544267,231.327804 280,227.378047 280,224.625775 L280,21.8508986 C280,19.0906788 278.653914,18.6312044 276.983622,20.8375937 L241.863799,67.2294835 Z" id="Rectangle-path" fill="#A46B3B"></path>
            <polygon id="Shape" fill="#C29264" transform="translate(190.490588, 43.783219) rotate(-164.000000) translate(-190.490588, -43.783219) " points="179.13407 22.7520524 224.569668 8.88146135 200.0605 66.1239691 156.411507 78.6849772"></polygon>
        </g>
    </g>
</svg>