<?xml version="1.0" encoding="UTF-8"?>
<svg width="857px" height="421px" viewBox="0 0 857 421" version="1.1" xmlns="http://www.w3.org/2000/svg" xmlns:xlink="http://www.w3.org/1999/xlink">
    <!-- Generator: Sketch 43.1 (39012) - http://www.bohemiancoding.com/sketch -->
    <title>ship</title>
    <desc>Created with Sketch.</desc>
    <defs>
        <radialGradient cx="36.0186354%" cy="-92.9585781%" fx="36.0186354%" fy="-92.9585781%" r="200.482933%" gradientTransform="translate(0.360186,-0.929586),scale(0.387227,1.000000),rotate(68.988997),translate(-0.360186,0.929586)" id="radialGradient-1">
            <stop stop-color="#FFFFFF" offset="0%"></stop>
            <stop stop-color="#292663" offset="100%"></stop>
        </radialGradient>
        <radialGradient cx="19.4417194%" cy="72.7460139%" fx="19.4417194%" fy="72.7460139%" r="124.122013%" gradientTransform="translate(0.194417,0.727460),scale(0.391259,1.000000),rotate(61.011054),scale(1.000000,1.572864),translate(-0.194417,-0.727460)" id="radialGradient-2">
            <stop stop-color="#C6C9CE" offset="0%"></stop>
            <stop stop-color="#686B66" offset="100%"></stop>
        </radialGradient>
        <linearGradient x1="6.63093883%" y1="40.518392%" x2="43.3409182%" y2="43.5747378%" id="linearGradient-3">
            <stop stop-color="#D6D7D2" offset="0%"></stop>
            <stop stop-color="#A6A7A2" offset="38.6300223%"></stop>
            <stop stop-color="#000000" offset="100%"></stop>
        </linearGradient>
        <linearGradient x1="2.7399163%" y1="31.9377885%" x2="97.1610539%" y2="86.8308589%" id="linearGradient-4">
            <stop stop-color="#FFFFFF" offset="0%"></stop>
            <stop stop-color="#E0E0E0" offset="41.4620536%"></stop>
            <stop stop-color="#2E2E2A" offset="100%"></stop>
        </linearGradient>
        <linearGradient x1="2.7399163%" y1="31.9377885%" x2="97.1610539%" y2="86.8308589%" id="linearGradient-5">
            <stop stop-color="#E3E4DF" offset="0%"></stop>
            <stop stop-color="#B9BABC" offset="41.4620536%"></stop>
            <stop stop-color="#626662" offset="100%"></stop>
        </linearGradient>
        <linearGradient x1="-3.09710699%" y1="37.2403814%" x2="47.6718029%" y2="42.0403497%" id="linearGradient-6">
            <stop stop-color="#D6D7D2" offset="0%"></stop>
            <stop stop-color="#A6A7A2" offset="38.6300223%"></stop>
            <stop stop-color="#000000" offset="100%"></stop>
        </linearGradient>
        <linearGradient x1="-2.58673804%" y1="55.3822649%" x2="93.9255593%" y2="65.5494605%" id="linearGradient-7">
            <stop stop-color="#F3F4EE" offset="0%"></stop>
            <stop stop-color="#BEBEBE" offset="28.8245376%"></stop>
            <stop stop-color="#DCDFDC" offset="41.8666295%"></stop>
            <stop stop-color="#626662" offset="100%"></stop>
        </linearGradient>
        <linearGradient x1="55.8433856%" y1="19.4019664%" x2="50%" y2="83.4217401%" id="linearGradient-8">
            <stop stop-color="#FFFFFF" offset="0%"></stop>
            <stop stop-color="#000000" stop-opacity="0" offset="100%"></stop>
        </linearGradient>
        <radialGradient cx="50%" cy="0%" fx="50%" fy="0%" r="100%" gradientTransform="translate(0.500000,0.000000),scale(1.000000,0.439723),rotate(90.000000),translate(-0.500000,-0.000000)" id="radialGradient-9">
            <stop stop-color="#E5A0A0" offset="0%"></stop>
            <stop stop-color="#6A2727" offset="100%"></stop>
        </radialGradient>
        <linearGradient x1="30.6707658%" y1="81.0913657%" x2="36.6084822%" y2="63.4455671%" id="linearGradient-10">
            <stop stop-color="#313034" offset="0%"></stop>
            <stop stop-color="#111111" offset="100%"></stop>
        </linearGradient>
        <linearGradient x1="71.1911579%" y1="12.1797138%" x2="21.6562039%" y2="67.9649573%" id="linearGradient-11">
            <stop stop-color="#343338" offset="0%"></stop>
            <stop stop-color="#111111" offset="100%"></stop>
        </linearGradient>
        <linearGradient x1="34.0808411%" y1="-29.1351431%" x2="65.4751709%" y2="88.7943885%" id="linearGradient-12">
            <stop stop-color="#898C8B" offset="0%"></stop>
            <stop stop-color="#DADADA" offset="100%"></stop>
        </linearGradient>
        <radialGradient cx="45.4915408%" cy="11.8530635%" fx="45.4915408%" fy="11.8530635%" r="78.9214645%" gradientTransform="translate(0.454915,0.118531),scale(0.733219,1.000000),rotate(73.042576),scale(1.000000,3.320246),translate(-0.454915,-0.118531)" id="radialGradient-13">
            <stop stop-color="#C0C1BC" offset="0%"></stop>
            <stop stop-color="#6B6C67" offset="100%"></stop>
        </radialGradient>
        <linearGradient x1="50%" y1="0%" x2="50%" y2="100%" id="linearGradient-14">
            <stop stop-color="#3B393D" offset="0%"></stop>
            <stop stop-color="#8C8F8E" offset="35.3954082%"></stop>
            <stop stop-color="#9A9D9C" offset="100%"></stop>
        </linearGradient>
        <linearGradient x1="11.7186256%" y1="82.9224181%" x2="84.440937%" y2="82.9224169%" id="linearGradient-15">
            <stop stop-color="#212121" stop-opacity="0.982563406" offset="0%"></stop>
            <stop stop-color="#252525" offset="100%"></stop>
        </linearGradient>
        <linearGradient x1="0%" y1="0%" x2="101.999998%" y2="100.999999%" id="linearGradient-16">
            <stop stop-color="#3023AE" offset="0%"></stop>
            <stop stop-color="#1B1845" offset="100%"></stop>
        </linearGradient>
    </defs>
    <g id="Page-1" stroke="none" stroke-width="1" fill="none" fill-rule="evenodd">
        <polygon id="Path-52" fill="#62635E" points="680.530778 251.341718 672.71841 323.451854 674.769707 323.885367"></polygon>
        <g id="Group-6" transform="translate(657.000000, 272.000000)" stroke="#979797">
            <path d="M21.4029297,0.380407787 L37.3076848,46.9257136" id="Path-53"></path>
            <path d="M21.0997731,5.25589437 L31.6446112,45.3652333" id="Path-54"></path>
            <path d="M21.5580363,0.446385963 L0.704912207,24.3631115" id="Path-55"></path>
            <path d="M21.1022081,5.16417281 L6.49920236,31.0642907" id="Path-56"></path>
        </g>
        <g id="Group-7" transform="translate(290.000000, 66.000000)" stroke="#979797">
            <path d="M49.19967,0.884077799 L0.984690168,56.183685" id="Path-57"></path>
            <path d="M49.7861056,1.45471127 L9.25357128,51.6792356" id="Path-58"></path>
            <path d="M49.8545816,1.97267088 L16.3698096,49.6565594" id="Path-59"></path>
            <path d="M48.5,1.5 L62.3962274,55.4612187" id="Path-60"></path>
            <path d="M48.5,1.5 L62.3962274,55.4612187" id="Path-60"></path>
            <path d="M48.5,1.5 L73.9739415,57.6050447" id="Path-61"></path>
            <path d="M48.5,1.5 L77.7383666,57.3978609" id="Path-62"></path>
        </g>
        <g id="Group-3" transform="translate(108.000000, 0.000000)">
            <g id="Group" transform="translate(195.000000, 150.000000)">
                <polygon id="Path-7" fill="url(#radialGradient-1)" points="0.0867049008 25.1035919 68.2215485 6.60098098 67.9720828 21.0124034 21.7213702 32.9846422"></polygon>
                <g id="Group-2" transform="translate(15.000000, 15.000000)" stroke="#979797">
                    <path d="M10.4984094,13.3679587 L10.4049268,17.770142" id="Path-17"></path>
                    <path d="M14.2346562,12.3008967 L14.2982244,16.5021772" id="Path-18"></path>
                    <path d="M18.0677851,11.1937221 L18.2482916,15.3783457" id="Path-19"></path>
                    <path d="M21.7639193,10.2068852 L21.7673187,14.1943454" id="Path-20"></path>
                    <path d="M25.1993219,9.1068493 L25.1122981,13.4954351" id="Path-21"></path>
                    <path d="M29.2602085,8.0261898 L29.2602085,12.2009552" id="Path-22"></path>
                    <path d="M33.2004175,6.80887565 L33.3241545,11.5693524" id="Path-23"></path>
                    <path d="M37.7225984,5.55144895 L37.6892846,10.3415002" id="Path-24"></path>
                    <path d="M42.2886313,4.57447021 L42.3253445,9.19761246" id="Path-25"></path>
                    <path d="M45.8810848,3.63148516 L46.0853869,8.00001466" id="Path-26"></path>
                    <path d="M50.1826467,2.67490264 L50.1826467,6.80955553" id="Path-27"></path>
                    <path d="M52.5,1.5 L52.5,6.5" id="Path-28"></path>
                    <path d="M52.8589701,1.43617247 L0.747899199,15.7740303" id="Path-16"></path>
                </g>
                <polygon id="Path-8" fill="url(#radialGradient-2)" points="38.1867922 38.8100568 66.7252373 32.388456 67.0195982 20.9930349 21.4818872 32.9171911"></polygon>
                <polygon id="Path-9" stroke="#979797" fill="#EBECE7" points="7.77092861 22.5084389 6.94351351 16.5697576 68.5768496 0.665237672 68.5768496 6.41123555"></polygon>
            </g>
            <g id="pipe1" transform="translate(313.000000, 121.000000)">
                <path d="M2.84805396,47.0083792 L7.97286711,4.23560035 C7.97286711,4.23560035 19.4436933,-2.1254897 31.3689566,0.743181286 C43.2942199,3.61185228 59.8898592,17.1734643 59.8898592,24.5851778 C59.8898592,38.3630829 55.6543298,83.4282339 55.6543298,83.4282339 L53.6950137,90.5143779 L0,69.8780213 L2.84805396,47.0083792 Z" id="Path-5" fill="url(#linearGradient-3)"></path>
                <path d="M5.82572443,18.8584686 C5.82572443,18.8584686 8.7708939,10.6653159 26.5089527,13.6572588 C38.9150588,15.7498419 49.7099137,27.7123047 55.1151914,36.1398631 L58.8104654,44.2446296 L57.8440467,54.5353057 C57.8440467,54.5353057 44.1695695,34.2651946 35.7903681,31.2347287 C32.0621297,29.8863544 24.548754,24.9068318 18.2549944,25.7279322 C11.9612349,26.5490325 4.24138895,34.3747127 4.24138895,34.3747127 L5.82572443,18.8584686 Z" id="Path-6" fill="url(#linearGradient-4)"></path>
            </g>
            <path d="M214.374748,183.032081 L238.544697,2.51045632 C238.544697,2.51045632 240.136497,-2.49026158 239.609577,1.79561523 C237.115996,22.0779817 228.398115,88.6698764 224.708154,121.784335 C220.238465,161.896227 217.546349,183.965644 217.546349,183.965644 L214.374748,183.032081 Z" id="Path-3" fill="#2D2E29"></path>
            <g id="pipe2" transform="translate(411.000000, 182.000000)">
                <path d="M2.28557837,42.9371326 L7.32190218,3.81669482 C7.32190218,3.81669482 20.1886876,-1.7422276 31.1402826,0.842728679 C42.0918776,3.42768495 54.4021572,17.9449192 54.4021572,24.6236062 C54.4021572,37.0388612 50.5889753,75.5220174 50.5889753,75.5220174 L49.3109483,81.5624064 L0.330163047,58.7576877 L2.28557837,42.9371326 Z" id="Path-5" fill="url(#linearGradient-3)"></path>
                <path d="M5.78243829,17.9400985 C5.78243829,17.9400985 10.9793666,8.76295086 26.6316776,12.101103 C35.6127033,14.016477 44.7312748,22.2592864 49.5960247,29.8533501 L53.9477579,37.613766 L53.2375601,46.459997 C53.2375601,46.459997 41.4472959,30.243522 33.9060147,27.5127725 C30.5506001,26.2977539 24.4863033,22.5728761 18.8219197,23.3127688 C13.1575362,24.0526614 4.30377049,28.5814476 4.30377049,28.5814476 L5.78243829,17.9400985 Z" id="Path-6" fill="url(#linearGradient-5)"></path>
            </g>
            <g id="pipe3" transform="translate(494.000000, 231.000000)">
                <path d="M2.07779852,37.2717677 L7.32912006,3.35383952 C7.32912006,3.35383952 15.82123,-1.35252673 25.7772254,1.01176254 C35.7332209,3.37605182 47.4338107,11.319537 47.4338107,17.4280922 C47.4338107,28.7835084 44.8281348,63.8800118 44.8281348,63.8800118 L44.8281348,72.599762 L0.492905059,52.1216872 L2.07779852,37.2717677 Z" id="Path-5" fill="url(#linearGradient-6)"></path>
                <path d="M4.88722454,16.4047658 C4.88722454,16.4047658 9.13332205,7.84024369 23.3626957,10.8934316 C31.5272646,12.6452981 36.8193812,16.5127411 41.2418811,23.458531 L47.0235741,31.9071195 L46.4474803,39.7727641 C46.4474803,39.7727641 35.7667975,26.861966 28.9110873,24.3643293 C25.8607104,23.2530318 19.3116702,20.5612606 14.1622305,21.2379917 C9.0127909,21.9147227 3.72225824,25.8186307 3.72225824,25.8186307 L4.88722454,16.4047658 Z" id="Path-6" fill="url(#linearGradient-7)"></path>
            </g>
            <polygon id="Path-2" fill="url(#linearGradient-8)" points="0.306860715 110.085125 18.9751774 114.458773 39.8017184 119.338054 42.9842892 125.106122 3.90635922 115.819757 4.38947675 126.321422 0.582537946 124.756749"></polygon>
            <polygon id="Path-4" fill="url(#radialGradient-9)" points="239.757432 0.36400279 246.246312 8.68345685 244.792621 18.4165551 238.30819 10.6230461"></polygon>
            <polygon id="Path-10" stroke="#979797" fill="#A3A7A8" points="264.332073 150.624292 279.428749 158.068607 278.061677 162.906814 263.669458 156.142724"></polygon>
            <polygon id="Path-10" fill="#707372" points="263 165.067418 277.153622 171.465901 277.153622 177.347287 263 171.17497"></polygon>
            <polygon id="Path-11" fill="#292662" points="263 156 263 166.143811 277.155133 173.04937 277.540443 162.52032"></polygon>
            <polygon id="Path-12" fill="url(#linearGradient-10)" points="263.391085 170.503955 277.371685 176.998969 284.496781 183.808507 286.21428 186.520205 276.009827 188.438866 261.664144 182.725763 262.027436 171.165455"></polygon>
            <polygon id="Path-13" fill="url(#linearGradient-11)" points="276.908363 188.26727 249.807493 194.917031 232.795523 188.488445 261.874751 182.05986"></polygon>
            <polygon id="Path-14" fill="#4A4696" points="277.53019 162.507734 285.396771 170.329836 277.104146 173.081537"></polygon>
            <polygon id="Path-15" fill="#CDD0CF" points="277.164971 172.931185 287.690707 169.629224 287.428937 174.56597 277.164971 176.952466"></polygon>
            <polygon id="Path-29" stroke="#979797" fill="#B2B5AF" points="250.903024 194.481473 289.538486 185.910747 288.642796 195.662116 265.767397 201.077937"></polygon>
            <polygon id="Path-31" fill="#E1E2DD" points="279.977469 158.09488 288.169287 156.554193 288.169287 162.996387 278.221273 163.888518"></polygon>
            <polygon id="Path-32" stroke="#5F5F5F" fill="#868686" points="288.610621 157.417952 308.436441 169.593221 302.878569 171.07498 288.610621 162.697299"></polygon>
            <polygon id="Path-33" fill="#929292" points="287.353314 174.538814 302.709069 171.025496 288.137841 162.350126"></polygon>
            <path d="M278.285177,163.898658 L285.458365,170.272792 C285.458365,170.272792 287.395807,169.986574 287.598032,169.648289 C287.800258,169.310005 288.108691,162.983537 288.108691,162.983537 L278.285177,163.898658 Z" id="Path-34" fill="#EFF3F2"></path>
            <polygon id="Path-35" fill="url(#linearGradient-12)" points="277.285107 176.899359 328.905027 164.962426 328.905027 177.455937 286.191671 186.328603 283.89955 182.982392"></polygon>
            <polygon id="Path-30" fill="#606060" points="328.901053 165.069637 337.563776 171.600127 337.563776 183.045173 328.901053 177.496216"></polygon>
            <polygon id="Path-36" stroke="#979797" fill="#E1E2DD" points="308.861783 181.981119 323.765596 178.910782 323.298087 209.784911 316.613908 206.351326 316.585594 214.890066 310.954011 211.624004 311.018765 217.789619 266.90324 201.27748 308.361705 192.487076"></polygon>
            <polygon id="Path-37" stroke="#7E7E7E" fill="#2C2F2A" points="334.46965 183.520517 336.49654 182.807247 328.751152 177.524957 324.085921 178.7961"></polygon>
            <polygon id="Path-38" fill="url(#radialGradient-13)" points="290.140803 185.581775 288.983473 196.123375 308.373247 192.375775 308.972838 181.466792"></polygon>
            <polygon id="Path-39" fill="#666762" points="290.00409 185.526746 295.30815 184.50326 293.810361 194.703308 289.077645 196.089468"></polygon>
        </g>
        <g id="Group-5" transform="translate(605.000000, 273.000000)">
            <path d="M39.5407884,16.9087452 C39.5407884,16.9087452 47.3922286,19.8786936 51.2055501,21.9077501 C55.0188716,23.9368066 63.9983178,29.9225203 63.9983178,29.9225203 C63.9983178,29.9225203 62.261628,35.4217919 61.3137662,37.9565261 C60.3659043,40.4912603 58.4853058,44.6651962 58.4853058,44.6651962 L36.3094153,33.4449494 L39.5407884,16.9087452 Z" id="Path-49" fill="#8A8D8C"></path>
            <path d="M34.1389222,17.7766064 L39.5076622,16.926741 C39.5076622,16.926741 39.0053731,21.4492108 38.5639346,24.0156907 C38.1224961,26.5821706 36.4965053,33.5827862 36.4965053,33.5827862 L30.5457296,30.2474364 L34.1389222,17.7766064 Z" id="Path-48" fill="#D3D6D5"></path>
            <path d="M67.2481369,31.564 C67.2481369,31.564 75.6141351,35.2347908 79.1384612,36.9349968 C82.6627874,38.6352027 97.3129003,53.2229911 97.3129003,53.2229911 L95.6946967,59.5946116 L61.0840441,46.7381074 C61.0840441,46.7381074 64.2092719,41.6427264 65.275197,39.0187454 C66.3411221,36.3947644 67.2481369,31.564 67.2481369,31.564 Z" id="Path-50" fill="#8C8F8E"></path>
            <path d="M63.9144268,30.4937057 L67.5554151,31.720588 C67.5554151,31.720588 65.6446713,37.9701764 64.7897742,40.2218325 C63.9348771,42.4734886 61.7550885,46.3721077 61.7550885,46.3721077 L58.4710287,44.7175457 L63.9144268,30.4937057 Z" id="Path-51" fill="#E1E4E3"></path>
            <path d="M0.961884706,1.85749125 C0.961884706,1.85749125 5.21121638,0.739341553 6.29907781,0.879483702 C7.38693924,1.01962585 9.36316653,1.85749125 9.36316653,1.85749125 L5.70021858,17.3841863 L0.961884706,15.5700158 L0.961884706,1.85749125 Z" id="Path-47" fill="#E3E3E3"></path>
            <path d="M9.01948579,1.70286444 C9.01948579,1.70286444 18.297222,5.9317601 22.4186608,8.53088565 C26.5400995,11.1300112 34.3404769,17.613797 34.3404769,17.613797 L30.5839764,30.7090865 L5.27982642,18.6609881 C5.27982642,18.6609881 6.11768406,13.3269862 6.78340288,10.3081707 C7.44912169,7.2893551 9.01948579,1.70286444 9.01948579,1.70286444 Z" id="Path-46" fill="#818584"></path>
        </g>
        <g id="Group-5" transform="translate(523.000000, 230.000000)">
            <path d="M39.5407884,16.9087452 C39.5407884,16.9087452 47.3922286,19.8786936 51.2055501,21.9077501 C55.0188716,23.9368066 63.9983178,29.9225203 63.9983178,29.9225203 C63.9983178,29.9225203 62.261628,35.4217919 61.3137662,37.9565261 C60.3659043,40.4912603 58.4853058,44.6651962 58.4853058,44.6651962 L36.3094153,33.4449494 L39.5407884,16.9087452 Z" id="Path-49" fill="#8A8D8C"></path>
            <path d="M34.1389222,17.7766064 L39.5076622,16.926741 C39.5076622,16.926741 39.0053731,21.4492108 38.5639346,24.0156907 C38.1224961,26.5821706 36.4965053,33.5827862 36.4965053,33.5827862 L30.5457296,30.2474364 L34.1389222,17.7766064 Z" id="Path-48" fill="#D3D6D5"></path>
            <path d="M67.2481369,31.564 C67.2481369,31.564 75.6141351,35.2347908 79.1384612,36.9349968 C82.6627874,38.6352027 88.4558472,41.795027 88.4558472,41.795027 C88.4558472,41.795027 86.8528194,46.8183884 86.0218351,49.0951976 C85.1908507,51.3720068 82.958347,58.3620276 82.958347,58.3620276 L61.0840441,46.7381074 C61.0840441,46.7381074 64.2092719,41.6427264 65.275197,39.0187454 C66.3411221,36.3947644 67.2481369,31.564 67.2481369,31.564 Z" id="Path-50" fill="#8C8F8E"></path>
            <path d="M63.9144268,30.4937057 L67.5554151,31.720588 C67.5554151,31.720588 65.6446713,37.9701764 64.7897742,40.2218325 C63.9348771,42.4734886 61.7550885,46.3721077 61.7550885,46.3721077 L58.4710287,44.7175457 L63.9144268,30.4937057 Z" id="Path-51" fill="#E1E4E3"></path>
            <path d="M0.961884706,1.85749125 C0.961884706,1.85749125 5.21121638,0.739341553 6.29907781,0.879483702 C7.38693924,1.01962585 9.36316653,1.85749125 9.36316653,1.85749125 L5.70021858,17.3841863 L0.961884706,15.5700158 L0.961884706,1.85749125 Z" id="Path-47" fill="#E3E3E3"></path>
            <path d="M9.01948579,1.70286444 C9.01948579,1.70286444 18.297222,5.9317601 22.4186608,8.53088565 C26.5400995,11.1300112 34.3404769,17.613797 34.3404769,17.613797 L30.5839764,30.7090865 L5.27982642,18.6609881 C5.27982642,18.6609881 6.11768406,13.3269862 6.78340288,10.3081707 C7.44912169,7.2893551 9.01948579,1.70286444 9.01948579,1.70286444 Z" id="Path-46" fill="#818584"></path>
        </g>
        <path d="M480.540788,203.908745 C480.540788,203.908745 488.392229,206.878694 492.20555,208.90775 C496.018872,210.936807 504.998318,216.92252 504.998318,216.92252 C504.998318,216.92252 503.261628,222.421792 502.313766,224.956526 C501.365904,227.49126 499.485306,231.665196 499.485306,231.665196 L477.309415,220.444949 L480.540788,203.908745 Z" id="Path-49" fill="#8A8D8C"></path>
        <path d="M475.138922,204.776606 L480.507662,203.926741 C480.507662,203.926741 480.005373,208.449211 479.563935,211.015691 C479.122496,213.582171 477.496505,220.582786 477.496505,220.582786 L471.54573,217.247436 L475.138922,204.776606 Z" id="Path-48" fill="#D3D6D5"></path>
        <path d="M508.248137,218.564 C508.248137,218.564 516.614135,222.234791 520.138461,223.934997 C523.662787,225.635203 529.455847,228.795027 529.455847,228.795027 C529.455847,228.795027 527.852819,233.818388 527.021835,236.095198 C526.190851,238.372007 523.958347,245.362028 523.958347,245.362028 L502.084044,233.738107 C502.084044,233.738107 505.209272,228.642726 506.275197,226.018745 C507.341122,223.394764 508.248137,218.564 508.248137,218.564 Z" id="Path-50" fill="#8C8F8E"></path>
        <path d="M504.914427,217.493706 L508.555415,218.720588 C508.555415,218.720588 506.644671,224.970176 505.789774,227.221833 C504.934877,229.473489 502.755088,233.372108 502.755088,233.372108 L499.471029,231.717546 L504.914427,217.493706 Z" id="Path-51" fill="#E1E4E3"></path>
        <path d="M441.961885,188.857491 C441.961885,188.857491 446.211216,187.739342 447.299078,187.879484 C448.386939,188.019626 450.363167,188.857491 450.363167,188.857491 L446.700219,204.384186 L441.961885,202.570016 L441.961885,188.857491 Z" id="Path-47" fill="#E3E3E3"></path>
        <path d="M450.019486,188.702864 C450.019486,188.702864 459.297222,192.93176 463.418661,195.530886 C467.5401,198.130011 475.340477,204.613797 475.340477,204.613797 L471.583976,217.709086 L446.279826,205.660988 C446.279826,205.660988 447.117684,200.326986 447.783403,197.308171 C448.449122,194.289355 450.019486,188.702864 450.019486,188.702864 Z" id="Path-46" fill="#818584"></path>
        <path d="M443.568264,202.893547 C443.568264,202.893547 580.762683,273.411371 623.781291,294.941093 C666.799898,316.470814 711.555625,337.014425 711.555625,337.014425 L708.966113,342.036109 L439.462688,211.638483 L441.112565,200.10552 L443.568264,202.893547 Z" id="Path-45" fill="#0D1110"></path>
        <g id="Group-4" transform="translate(387.000000, 200.000000)">
            <path d="M28.1211466,0.705593112 L0.181544414,6.76512987" id="Path-40" stroke="#979797"></path>
            <polygon id="Path-41" fill="#BEBFBA" points="28.5713163 4.62899005 24.2060622 5.11069902 24.2060622 9.25862397 28.5713163 8.7945458"></polygon>
            <polygon id="Path-42" stroke="#979797" fill="#AFB1AE" points="19.3134556 5.9052375 15.4795828 6.63411027 15.4795828 10.5027655 19.3134556 10.5027655"></polygon>
            <polygon id="Path-43" stroke="#979797" fill="#AFB1AE" points="11.8526545 7.53720141 7.35778882 8.27018705 7.35778882 11.5598706 11.8526545 11.2224532"></polygon>
            <polyline id="Path-44" stroke="#979797" points="28.4430314 4.52978537 24.1192752 5.10429119 24.0407584 8.95842817"></polyline>
        </g>
        <path d="M108,109 L147.278741,118.503461 C147.278741,118.503461 148.928444,121.777296 149.888578,123.285166 C150.848712,124.793036 152.424715,126.585106 152.424715,126.585106 C152.424715,126.585106 164.802464,132.190036 185.365325,138.809796 C196.309162,142.332923 225.771233,149.817082 262.546926,161.323716 C299.322619,172.83035 335.666388,185.941243 335.666388,185.941243 L418.708078,217.238992 L418.708078,211.005128 L424.437763,214.360403 L424.437763,205.918122 L431.42342,209.262598 L431.42342,178.514176 L442.313172,183.001798 L442.313172,205.918122 L597.424664,284.255038 C597.424664,284.255038 618.840015,295.819795 646.508244,309.030648 C674.176472,322.241501 675.519121,322.365166 675.519121,322.365166 L718.323843,342.491907 C718.323843,342.491907 738.981362,351.413512 745.232935,354.098752 C751.484507,356.783992 764.319913,362.067649 764.319913,362.067649 L764.319913,369.457115 C764.319913,369.457115 737.330088,360.393166 722.942056,355.001299 C708.554024,349.609431 682.805484,338.486823 682.805484,338.486823 C682.805484,338.486823 651.405273,326.21504 638.915835,320.840137 C626.426398,315.465235 601.312838,303.228784 601.312838,303.228784 L535.033066,274.769204 L488.440973,255.304434 C488.440973,255.304434 470.730367,247.538402 456.490713,241.840016 C442.25106,236.14163 430.187476,231.113895 430.187476,231.113895 L381.963162,213.031838 C381.963162,213.031838 288.896493,179.308665 268.279377,172.364995 C247.662261,165.421325 220.636295,158.711374 220.636295,158.711374 L147.891367,136.271526 L122.329081,129.433664 L108.440791,124.978863 L108,109 Z" id="Path" fill="url(#linearGradient-14)"></path>
        <polygon id="Path-64" fill="#0C0C0C" points="193.634059 403.829497 759.39385 402.508404 772.204431 371.0156 655.036237 325.057777 484.349611 251.021582 310.820805 185.372376 148.589851 136.080689 109.865574 124.858062"></polygon>
        <path d="M108.69565,124.818891 L118.345754,275.065724 L118.390352,404.61666 L217.434276,405.449929 C217.434276,405.449929 201.43758,331.700099 189.37411,296.215777 C177.310639,260.731455 136.465342,167.282337 136.465342,167.282337 C136.465342,167.282337 130.402091,154.565938 127.343464,149.522568 C125.278016,146.116853 120.00124,135.953579 115.166779,129.772153 C110.332317,123.590726 108.69565,124.818891 108.69565,124.818891 Z" id="Path-63" fill="url(#linearGradient-15)"></path>
        <path d="M-0.47495764,389.458446 C-0.47495764,389.458446 32.3404189,401.016709 54.3180326,400.506676 C76.2956463,399.996643 107.020014,388.144271 107.020014,388.144271 C107.020014,388.144271 154.641553,401.071937 181.97019,401 C209.298827,400.928063 245.409646,387.77999 245.409646,387.77999 C245.409646,387.77999 291.506546,400.844868 314.902469,401 C338.298391,401.155132 375.453109,388.642274 375.453109,388.642274 C375.453109,388.642274 423.736239,400.852203 450.199843,401 C476.663447,401.147797 514.16091,389.416946 514.16091,389.416946 C514.16091,389.416946 557.06792,400.992827 578.689365,401 C600.310809,401.007173 639.256615,389.458446 639.256615,389.458446 C639.256615,389.458446 680.519764,400.968849 701.151962,401 C721.784159,401.031151 754.299673,391.953075 754.299673,391.953075 C754.299673,391.953075 788.079306,402.401173 805.123007,402.473583 C822.166708,402.545993 858.217162,391.337907 858.217162,391.337907 L914.616929,404.585974 L914.616929,421.391959 L-0.47495764,420.762226 L-0.47495764,389.458446 Z" id="Path-65" fill="url(#linearGradient-16)"></path>
    </g>
</svg>